<svg width="48" height="48" viewBox="0 0 48 48" fill="none" xmlns="http://www.w3.org/2000/svg">
<path d="M35.5571 23.6961C35.4171 35.2896 42.0788 34.2611 45.1227 32.3961C46.5977 34.3035 44.8557 38.1534 43.3952 39.7212C41.9348 41.289 36.8786 44.5994 31.6195 43.5289C26.7965 42.5471 25.4288 38.7641 24.3618 35.1137C23.5082 32.1934 23.6157 26.5907 23.4343 23.7494C23.2167 20.3398 22.4175 13.2389 18.4276 13.4464C14.4377 13.6539 12.2027 18.1619 12.1448 20.5006L12.1528 10.7022C14.1158 7.57563 19.55 3.09482 25.273 3.17756C30.996 3.26029 32.9457 6.43197 33.2694 7.29397C33.2694 7.29397 35.6971 12.1026 35.5571 23.6961Z" fill="#635BFF"/>
<rect y="2.479" width="12.1639" height="41.7085" rx="4.26021" fill="#635BFF"/>
</svg>
